<svg width="40" height="28" viewBox="0 0 40 28" fill="none" xmlns="http://www.w3.org/2000/svg">
<path d="M37.9486 0.508789H2.05132C0.923045 0.508789 0 1.43183 0 2.56003V25.1241C0 26.2523 0.923045 27.1755 2.05132 27.1755H37.9487C39.0768 27.1755 40 26.2524 40 25.1241V2.56003C39.9999 1.43183 39.0769 0.508789 37.9486 0.508789ZM37.1788 2.04715L21.18 14.0473C20.8923 14.2662 20.4507 14.4031 19.9999 14.4011C19.5491 14.4031 19.1076 14.2662 18.8199 14.0473L2.82101 2.04715H37.1788ZM28.6328 14.8391L37.3507 25.6084C37.3595 25.6191 37.3702 25.6273 37.3795 25.6371H2.62046C2.62968 25.6269 2.64046 25.6191 2.64921 25.6084L11.3672 14.8391C11.6343 14.5088 11.5836 14.0247 11.2528 13.757C10.9226 13.4899 10.4384 13.5405 10.1712 13.8708L1.53843 24.5349V3.00871L17.8973 15.2779C18.5122 15.7359 19.2604 15.9374 19.9998 15.9395C20.7382 15.9379 21.487 15.7363 22.1023 15.2779L38.4612 3.00871V24.5348L29.8286 13.8708C29.5614 13.5406 29.0768 13.4898 28.7471 13.757C28.4163 14.0241 28.3655 14.5088 28.6328 14.8391Z" fill="black"/>
</svg>
