<svg width="29" height="30" viewBox="0 0 29 30" fill="none" xmlns="http://www.w3.org/2000/svg">
<path d="M20.5724 1.50879H8.21758C4.23104 1.50879 1 4.74041 1 8.72637V21.0812C1 25.0677 4.23162 28.2988 8.21816 28.2988H20.5718C24.5584 28.2988 27.79 25.0672 27.79 21.0806V8.72637C27.79 4.73983 24.5584 1.50879 20.5718 1.50879H20.5724Z" fill="white"/>
<path d="M20.5724 1.50879H8.21758C4.23104 1.50879 1 4.74041 1 8.72637V21.0812C1 25.0677 4.23162 28.2988 8.21816 28.2988H20.5718C24.5584 28.2988 27.79 25.0672 27.79 21.0806V8.72637C27.79 4.73983 24.5584 1.50879 20.5718 1.50879H20.5724Z" stroke="black" stroke-width="2" stroke-miterlimit="10"/>
<path d="M14.3951 21.3706C17.9665 21.3706 20.8618 18.4754 20.8618 14.9039C20.8618 11.3325 17.9665 8.43726 14.3951 8.43726C10.8237 8.43726 7.92844 11.3325 7.92844 14.9039C7.92844 18.4754 10.8237 21.3706 14.3951 21.3706Z" stroke="black" stroke-width="2" stroke-miterlimit="10"/>
<path d="M22.2474 8.43736C23.0126 8.43736 23.6329 7.81703 23.6329 7.05181C23.6329 6.28659 23.0126 5.66626 22.2474 5.66626C21.4821 5.66626 20.8618 6.28659 20.8618 7.05181C20.8618 7.81703 21.4821 8.43736 22.2474 8.43736Z" fill="black"/>
</svg>
