<svg width="27" height="28" viewBox="0 0 27 28" fill="none" xmlns="http://www.w3.org/2000/svg">
<path d="M26.3529 20.4968L21.417 16.5873C20.8573 16.1422 20.2665 15.9003 19.7239 15.9003C19.1993 15.9003 18.7195 16.1263 18.3568 16.6139L16.6963 18.8883C15.1071 17.6256 13.6933 16.378 12.3516 15.0436C11.0064 13.7118 9.74932 12.3091 8.47642 10.7319L10.7689 9.08432C11.7682 8.35181 11.6775 7.13987 10.796 6.04778L6.85735 1.15061C6.42429 0.723532 5.85293 0.508789 5.28156 0.508789C4.72183 0.508789 4.16154 0.714587 3.72938 1.12914L0.750364 3.90621C0.383423 4.2598 0.142879 4.71392 0.0354728 5.25611C-0.517381 8.04212 5.52727 15.4475 8.73609 18.6318C11.807 21.6786 18.7698 27.3006 21.8262 27.3006C21.9645 27.3006 22.0946 27.2891 22.2162 27.2654C22.7623 27.1589 23.2198 26.92 23.5764 26.5565L26.3749 23.6003C27.219 22.7334 27.2048 21.347 26.3529 20.4968ZM25.4297 22.7184L22.6407 25.6647C22.4697 25.8365 22.248 25.9469 21.9653 26.0023C21.9391 26.0075 21.8948 26.0131 21.8261 26.0131C19.4959 26.0131 13.061 21.1021 9.65327 17.721C8.27124 16.3501 5.97141 13.781 4.03556 11.0529C1.12701 6.95478 1.28086 5.64018 1.30748 5.50312C1.36377 5.22294 1.47461 5.00387 1.64732 4.83419L4.63011 2.05327C4.80453 1.88662 5.03524 1.79504 5.28143 1.79504C5.51303 1.79504 5.73038 1.87582 5.89964 2.02279L9.78379 6.85212C10.1176 7.26544 10.2109 7.60396 10.1881 7.78313C10.182 7.82868 10.1697 7.92315 10.0077 8.04177L7.71611 9.68939C7.42823 9.89602 7.23881 10.2101 7.19154 10.559C7.14386 10.9078 7.24266 11.2605 7.46435 11.5355C8.77854 13.1637 10.0773 14.6091 11.4331 15.9519C12.7916 17.3032 14.2485 18.592 15.8852 19.8924C16.1168 20.0762 16.4029 20.1746 16.6959 20.1746C16.754 20.1746 16.812 20.1708 16.8695 20.1631C17.2209 20.1158 17.5384 19.9281 17.7463 19.6428L19.4004 17.3779C19.5314 17.2017 19.6311 17.1867 19.7234 17.1867C19.9575 17.1867 20.2875 17.3379 20.608 17.5926L25.4731 21.445C25.7897 21.8046 25.7794 22.3584 25.4297 22.7184Z" fill="black"/>
</svg>
